<svg xmlns="http://www.w3.org/2000/svg" xml:space="preserve" style="enable-background:new 0 0 100 100" viewBox="0 0 100 125"><style>.st0,.st1{fill:none;stroke-miterlimit:10}.st0{stroke:#000;stroke-width:2;stroke-linecap:round;stroke-linejoin:round}.st1{stroke-dasharray:6,5}.st1,.st2,.st3,.st4,.st5{stroke:#000;stroke-width:2;stroke-linecap:round;stroke-linejoin:round}.st2{stroke-miterlimit:10}.st3,.st4,.st5{fill:none}.st4,.st5{stroke-dasharray:11.0102,11.0102}.st5{stroke-dasharray:6.063,5.0525}</style><path d="M15.3 63.2c0 .6.4 1 1 1s1-.4 1-1C17.3 46.6 30.8 33 47.5 33c16.1 0 29.3 12.6 30.1 28.5l-6.1-6.1c-.4-.4-1-.4-1.4 0s-.4 1 0 1.4l7.9 7.9c.2.2.5.3.7.3s.5-.1.7-.3l7.9-7.9c.4-.4.4-1 0-1.4s-1-.4-1.4 0l-6.2 6.2c-.9-17-15-30.6-32.2-30.6-17.8 0-32.2 14.5-32.2 32.2z"/></svg>