<svg xmlns="http://www.w3.org/2000/svg" xmlns:xlink="http://www.w3.org/1999/xlink" viewBox="0 0 44 36.865"><path d="M 20.11 36.345 C 20.11 36.345 20.074 36.345 20.054 36.345 C 19.611 36.313 19.276 35.931 19.304 35.487 C 19.888 27.037 19.107 18.608 16.98 10.436 C 16.343 7.987 15.328 5.034 13.112 3.911 C 11.694 3.194 9.796 3.278 7.898 4.148 C 6.367 4.849 5.042 5.921 4.063 7.238 C 1.081 11.253 1.484 16.876 1.875 22.317 L 1.907 22.744 C 2.209 26.989 2.338 31.299 2.286 35.552 C 2.282 35.995 1.923 36.345 1.472 36.349 C 1.029 36.345 0.67 35.979 0.674 35.536 C 0.727 31.327 0.602 27.062 0.299 22.865 L 0.267 22.438 C -0.124 16.972 -0.571 10.782 2.769 6.283 C 3.909 4.748 5.453 3.504 7.229 2.69 C 9.574 1.615 11.988 1.538 13.845 2.481 C 16.637 3.899 17.822 7.262 18.547 10.037 C 20.718 18.378 21.516 26.981 20.92 35.604 C 20.892 36.031 20.537 36.353 20.118 36.353 Z" fill="rgb(0,0,0)"></path><path d="M 2.511 36.788 C 2.205 36.788 1.915 36.615 1.778 36.321 C 1.593 35.918 1.77 35.439 2.173 35.254 C 4.872 34.013 7.793 34.178 10.622 34.34 C 12.29 34.436 14.014 34.533 15.63 34.328 C 15.807 34.303 15.988 34.279 16.17 34.255 C 17.693 34.042 19.421 33.8 20.771 34.94 C 21.109 35.226 21.154 35.733 20.868 36.076 C 20.581 36.414 20.07 36.458 19.731 36.172 C 18.934 35.5 17.701 35.673 16.395 35.854 C 16.206 35.882 16.017 35.906 15.835 35.931 C 14.071 36.152 12.274 36.051 10.533 35.951 C 7.781 35.794 5.187 35.645 2.85 36.72 C 2.741 36.768 2.628 36.792 2.515 36.792 Z" fill="rgb(0,0,0)"></path><path d="M 26.641 36.615 C 26.238 36.615 25.888 36.313 25.843 35.902 L 23.575 15.913 C 23.245 13.001 22.87 9.698 23.704 6.593 C 24.502 3.621 26.826 0.439 30.219 0.04 C 32.604 -0.238 35.13 0.938 36.976 3.194 C 38.575 5.147 39.469 7.572 40.203 9.9 C 42.753 18.044 43.881 26.518 43.555 35.085 C 43.539 35.528 43.168 35.89 42.717 35.858 C 42.274 35.842 41.927 35.467 41.943 35.024 C 42.266 26.639 41.162 18.35 38.664 10.383 C 37.983 8.208 37.153 5.957 35.731 4.213 C 34.256 2.412 32.221 1.426 30.408 1.639 C 27.777 1.949 25.896 4.64 25.259 7.012 C 24.506 9.823 24.86 12.961 25.175 15.732 L 27.443 35.721 C 27.491 36.164 27.177 36.563 26.734 36.611 C 26.702 36.611 26.673 36.615 26.641 36.615 Z" fill="rgb(0,0,0)"></path><path d="M 27.322 35.999 C 26.963 35.999 26.637 35.757 26.54 35.395 C 26.428 34.964 26.689 34.525 27.121 34.412 C 32.153 33.115 37.523 32.841 42.648 33.619 C 43.087 33.687 43.39 34.098 43.325 34.537 C 43.257 34.976 42.846 35.278 42.407 35.214 C 37.491 34.468 32.346 34.73 27.519 35.975 C 27.451 35.991 27.382 35.999 27.318 35.999 Z" fill="rgb(0,0,0)"></path><path d="M 19.252 23.167 C 19.252 22.345 19.256 21.52 19.26 20.698 C 19.26 20.384 19.147 20.158 18.982 20.009 C 18.954 19.522 18.926 19.039 18.893 18.551 C 18.913 18.491 18.93 18.442 18.934 18.43 C 19.091 17.939 19.248 17.456 19.236 16.928 C 19.228 16.574 19.151 16.219 19.018 15.893 C 19.953 16.07 20.316 14.467 19.32 14.068 C 15.283 12.441 12.942 17.407 12.213 20.71 C 11.266 24.999 11.665 29.438 12.088 33.772 C 12.173 34.626 13.116 34.859 13.591 34.477 C 13.938 34.843 14.602 34.899 14.925 34.485 C 15.199 34.581 15.517 34.581 15.892 34.424 C 15.94 34.404 15.968 34.372 16.013 34.348 C 16.101 35.504 17.656 35.447 17.769 34.295 C 17.781 34.166 17.793 34.038 17.805 33.913 C 17.858 34.122 17.918 34.328 17.995 34.529 C 18.289 35.294 19.498 35.524 19.703 34.529 C 20.485 30.723 19.457 26.969 19.252 23.175 Z" fill="rgb(0,0,0)"></path><path d="M 42.882 32.857 C 42.58 31.54 42.302 30.219 42.036 28.894 C 42.072 27.75 42.048 26.607 41.963 25.463 C 42.278 25.358 42.519 25.076 42.491 24.617 C 42.423 23.517 42.298 22.422 42.117 21.334 C 42.064 21.024 41.875 20.843 41.641 20.75 C 41.532 20.299 41.428 19.848 41.311 19.397 C 41.21 18.205 41.013 17.025 40.731 15.865 C 40.864 15.663 40.976 15.446 41.033 15.188 C 41.222 14.314 40.827 13.311 40.63 12.474 C 40.513 11.99 40.05 11.753 39.606 11.821 C 39.465 11.684 39.284 11.583 39.034 11.579 C 35.094 11.547 34.268 16.594 34.087 19.78 C 33.833 24.202 34.437 28.725 34.743 33.135 C 34.792 33.816 35.392 34.098 35.88 33.997 C 36.21 34.525 36.992 34.456 37.33 33.965 C 37.403 34.025 37.471 34.09 37.556 34.142 C 38.007 34.404 38.716 34.203 38.845 33.623 C 38.861 33.651 38.865 33.683 38.881 33.711 C 39.119 34.122 39.687 34.327 40.09 34.046 C 40.162 33.993 40.219 33.933 40.287 33.876 C 40.364 33.889 40.436 33.897 40.513 33.909 C 40.545 33.913 40.561 33.909 40.585 33.909 C 40.904 34.384 41.681 34.549 42.112 33.921 C 42.084 33.961 42.06 34.001 42.032 34.042 C 42.632 34.122 43.003 33.385 42.886 32.861 Z" fill="rgb(0,0,0)"></path></svg>