<svg xmlns="http://www.w3.org/2000/svg" viewBox="0 0 60 75"><path d="M40 42.152v-9.86l8-3.061v9.859Zm8-.921v9.872l-8 3.034v-9.844ZM19.98 5.87l7.058 2.691-6.389 2.436-7.061-2.703Zm9.865 3.761 6.393 2.438-6.396 2.447-6.39-2.446Zm16.408-1.395-7.213 2.76-6.388-2.435 7.211-2.75Zm9.93 3.765-7.267 2.76-7.073-2.696 7.224-2.764Zm-16.53 6.27-7.012-2.684 6.4-2.45 7.055 2.69Zm-2.81 1.065L30 21.93l-6.999-2.655 6.843-2.619ZM20 20.276v9.876l-8-3.062v-9.848Zm2 .759 7 2.655v9.907l-7-2.68Zm7 14.702v9.86l-7-2.68v-9.859Zm2-12.047 7-2.654v9.881l-7 2.68Zm9-3.412 8-3.034v9.846l-8 3.062Zm10-3.789 8-3.039v9.813l-8 3.062Zm-22.955-.903-6.855 2.623-6.437-2.442 6.896-2.63ZM5.778 14.88 10 16.483v9.842l-8-3.062v-9.815ZM2 25.403l8 3.062v9.86l-8-3.062Zm10 3.828 8 3.062v9.859l-8-3.062Zm8 15.062v9.844l-8-3.034V41.23Zm2 .765 7 2.68v9.813l-7-2.655Zm9-9.32 7-2.68v9.86l-7 2.679Zm19-7.273 8-3.061v9.859l-8 3.062ZM30 2.07l7.049 2.675-7.204 2.747-7.051-2.689ZM10.774 9.36l7.073 2.706-6.909 2.635-7.12-2.701ZM2 37.402l8 3.062v9.879L2 47.31Zm29 10.334 7-2.679v9.838l-7 2.655Zm19 2.607v-9.879l8-3.061v9.906Z"/></svg>